<?xml version="1.0" encoding="us-ascii" standalone="no"?><svg xmlns="http://www.w3.org/2000/svg" xmlns:xlink="http://www.w3.org/1999/xlink" contentStyleType="text/css" height="746px" preserveAspectRatio="none" style="width:618px;height:746px;background:#FFFFFF;" version="1.1" viewBox="0 0 618 746" width="618px" zoomAndPan="magnify"><defs/><g><rect fill="none" height="174.4688" style="stroke:#000000;stroke-width:1.5;" width="460" x="131" y="156.5625"/><rect fill="none" height="216.6016" style="stroke:#000000;stroke-width:1.5;" width="416" x="131" y="432.4297"/><line style="stroke:#181818;stroke-width:0.5;stroke-dasharray:5.0,5.0;" x1="22" x2="22" y1="81.2969" y2="666.0313"/><line style="stroke:#181818;stroke-width:0.5;stroke-dasharray:5.0,5.0;" x1="169" x2="169" y1="81.2969" y2="666.0313"/><line style="stroke:#181818;stroke-width:0.5;stroke-dasharray:5.0,5.0;" x1="389" x2="389" y1="81.2969" y2="666.0313"/><line style="stroke:#181818;stroke-width:0.5;stroke-dasharray:5.0,5.0;" x1="585.5" x2="585.5" y1="81.2969" y2="666.0313"/><text fill="#000000" font-family="sans-serif" font-size="14" lengthAdjust="spacing" textLength="28" x="5" y="77.9951">&#29992;&#25143;</text><ellipse cx="22" cy="13.5" fill="#E2E2F0" rx="8" ry="8" style="stroke:#181818;stroke-width:0.5;"/><path d="M22,21.5 L22,48.5 M9,29.5 L35,29.5 M22,48.5 L9,63.5 M22,48.5 L35,63.5 " fill="none" style="stroke:#181818;stroke-width:0.5;"/><text fill="#000000" font-family="sans-serif" font-size="14" lengthAdjust="spacing" textLength="28" x="5" y="678.0264">&#29992;&#25143;</text><ellipse cx="22" cy="689.8281" fill="#E2E2F0" rx="8" ry="8" style="stroke:#181818;stroke-width:0.5;"/><path d="M22,697.8281 L22,724.8281 M9,705.8281 L35,705.8281 M22,724.8281 L9,739.8281 M22,724.8281 L35,739.8281 " fill="none" style="stroke:#181818;stroke-width:0.5;"/><rect fill="#E2E2F0" height="30.2969" rx="2.5" ry="2.5" style="stroke:#181818;stroke-width:0.5;" width="56" x="141" y="50"/><text fill="#000000" font-family="sans-serif" font-size="14" lengthAdjust="spacing" textLength="42" x="148" y="69.9951">&#36141;&#29289;&#36710;</text><rect fill="#E2E2F0" height="30.2969" rx="2.5" ry="2.5" style="stroke:#181818;stroke-width:0.5;" width="56" x="141" y="665.0313"/><text fill="#000000" font-family="sans-serif" font-size="14" lengthAdjust="spacing" textLength="42" x="148" y="685.0264">&#36141;&#29289;&#36710;</text><rect fill="#E2E2F0" height="30.2969" rx="2.5" ry="2.5" style="stroke:#181818;stroke-width:0.5;" width="56" x="361" y="50"/><text fill="#000000" font-family="sans-serif" font-size="14" lengthAdjust="spacing" textLength="42" x="368" y="69.9951">&#26381;&#21153;&#31471;</text><rect fill="#E2E2F0" height="30.2969" rx="2.5" ry="2.5" style="stroke:#181818;stroke-width:0.5;" width="56" x="361" y="665.0313"/><text fill="#000000" font-family="sans-serif" font-size="14" lengthAdjust="spacing" textLength="42" x="368" y="685.0264">&#26381;&#21153;&#31471;</text><rect fill="#E2E2F0" height="30.2969" rx="2.5" ry="2.5" style="stroke:#181818;stroke-width:0.5;" width="53" x="559.5" y="50"/><text fill="#000000" font-family="sans-serif" font-size="14" lengthAdjust="spacing" textLength="39" x="566.5" y="69.9951">Redis</text><rect fill="#E2E2F0" height="30.2969" rx="2.5" ry="2.5" style="stroke:#181818;stroke-width:0.5;" width="53" x="559.5" y="665.0313"/><text fill="#000000" font-family="sans-serif" font-size="14" lengthAdjust="spacing" textLength="39" x="566.5" y="685.0264">Redis</text><polygon fill="#181818" points="157,108.4297,167,112.4297,157,116.4297,161,112.4297" style="stroke:#181818;stroke-width:1.0;"/><line style="stroke:#181818;stroke-width:1.0;" x1="22" x2="163" y1="112.4297" y2="112.4297"/><text fill="#000000" font-family="sans-serif" font-size="13" font-weight="bold" lengthAdjust="spacing" textLength="9" x="29" y="107.3638">1</text><text fill="#000000" font-family="sans-serif" font-size="13" lengthAdjust="spacing" textLength="110" x="42" y="107.3638">&#21152;&#36141;hollis&#30340;&#20843;&#32929;&#25991;</text><polygon fill="#181818" points="377,137.5625,387,141.5625,377,145.5625,381,141.5625" style="stroke:#181818;stroke-width:1.0;"/><line style="stroke:#181818;stroke-width:1.0;" x1="169" x2="383" y1="141.5625" y2="141.5625"/><text fill="#000000" font-family="sans-serif" font-size="13" font-weight="bold" lengthAdjust="spacing" textLength="9" x="176" y="136.4966">2</text><text fill="#000000" font-family="sans-serif" font-size="13" lengthAdjust="spacing" textLength="26" x="189" y="136.4966">&#21152;&#36141;</text><path d="M131,156.5625 L195,156.5625 L195,163.6953 L185,173.6953 L131,173.6953 L131,156.5625 " fill="#EEEEEE" style="stroke:#000000;stroke-width:1.5;"/><rect fill="none" height="174.4688" style="stroke:#000000;stroke-width:1.5;" width="460" x="131" y="156.5625"/><text fill="#000000" font-family="sans-serif" font-size="13" font-weight="bold" lengthAdjust="spacing" textLength="19" x="146" y="169.6294">alt</text><text fill="#000000" font-family="sans-serif" font-size="11" font-weight="bold" lengthAdjust="spacing" textLength="54" x="210" y="168.7729">[&#24050;&#26377;&#21830;&#21697;]</text><line style="stroke:#181818;stroke-width:1.0;" x1="389" x2="431" y1="194.8281" y2="194.8281"/><line style="stroke:#181818;stroke-width:1.0;" x1="431" x2="431" y1="194.8281" y2="207.8281"/><line style="stroke:#181818;stroke-width:1.0;" x1="390" x2="431" y1="207.8281" y2="207.8281"/><polygon fill="#181818" points="400,203.8281,390,207.8281,400,211.8281,396,207.8281" style="stroke:#181818;stroke-width:1.0;"/><text fill="#000000" font-family="sans-serif" font-size="13" font-weight="bold" lengthAdjust="spacing" textLength="9" x="396" y="189.7622">3</text><text fill="#000000" font-family="sans-serif" font-size="13" lengthAdjust="spacing" textLength="47" x="409" y="189.7622">&#25968;&#37327;&#21152;1</text><polygon fill="#181818" points="180,232.9609,170,236.9609,180,240.9609,176,236.9609" style="stroke:#181818;stroke-width:1.0;"/><line style="stroke:#181818;stroke-width:1.0;stroke-dasharray:2.0,2.0;" x1="174" x2="388" y1="236.9609" y2="236.9609"/><text fill="#000000" font-family="sans-serif" font-size="13" font-weight="bold" lengthAdjust="spacing" textLength="9" x="186" y="231.895">4</text><text fill="#000000" font-family="sans-serif" font-size="13" lengthAdjust="spacing" textLength="52" x="199" y="231.895">&#21152;&#36141;&#25104;&#21151;</text><line style="stroke:#000000;stroke-width:1.0;stroke-dasharray:2.0,2.0;" x1="131" x2="591" y1="245.9609" y2="245.9609"/><text fill="#000000" font-family="sans-serif" font-size="11" font-weight="bold" lengthAdjust="spacing" textLength="54" x="136" y="256.1714">[&#26410;&#26377;&#21830;&#21697;]</text><line style="stroke:#181818;stroke-width:1.0;" x1="389" x2="431" y1="280.8984" y2="280.8984"/><line style="stroke:#181818;stroke-width:1.0;" x1="431" x2="431" y1="280.8984" y2="293.8984"/><line style="stroke:#181818;stroke-width:1.0;" x1="390" x2="431" y1="293.8984" y2="293.8984"/><polygon fill="#181818" points="400,289.8984,390,293.8984,400,297.8984,396,293.8984" style="stroke:#181818;stroke-width:1.0;"/><text fill="#000000" font-family="sans-serif" font-size="13" font-weight="bold" lengthAdjust="spacing" textLength="9" x="396" y="275.8325">5</text><text fill="#000000" font-family="sans-serif" font-size="13" lengthAdjust="spacing" textLength="170" x="409" y="275.8325">&#29983;&#25104;&#20840;&#23616;&#21807;&#19968;&#30340;cart_item_id</text><polygon fill="#181818" points="180,319.0313,170,323.0313,180,327.0313,176,323.0313" style="stroke:#181818;stroke-width:1.0;"/><line style="stroke:#181818;stroke-width:1.0;stroke-dasharray:2.0,2.0;" x1="174" x2="388" y1="323.0313" y2="323.0313"/><text fill="#000000" font-family="sans-serif" font-size="13" font-weight="bold" lengthAdjust="spacing" textLength="9" x="186" y="317.9653">6</text><text fill="#000000" font-family="sans-serif" font-size="13" lengthAdjust="spacing" textLength="183" x="199" y="317.9653">&#21152;&#36141;&#25104;&#21151;&#65288;&#25658;&#24102;cart_item_id&#65289;</text><polygon fill="#181818" points="157,355.1641,167,359.1641,157,363.1641,161,359.1641" style="stroke:#181818;stroke-width:1.0;"/><line style="stroke:#181818;stroke-width:1.0;" x1="22" x2="163" y1="359.1641" y2="359.1641"/><text fill="#000000" font-family="sans-serif" font-size="13" font-weight="bold" lengthAdjust="spacing" textLength="9" x="29" y="354.0981">7</text><text fill="#000000" font-family="sans-serif" font-size="13" lengthAdjust="spacing" textLength="110" x="42" y="354.0981">&#36141;&#20080;hollis&#30340;&#20843;&#32929;&#25991;</text><polygon fill="#181818" points="377,384.2969,387,388.2969,377,392.2969,381,388.2969" style="stroke:#181818;stroke-width:1.0;"/><line style="stroke:#181818;stroke-width:1.0;" x1="169" x2="383" y1="388.2969" y2="388.2969"/><text fill="#000000" font-family="sans-serif" font-size="13" font-weight="bold" lengthAdjust="spacing" textLength="9" x="176" y="383.231">8</text><text fill="#000000" font-family="sans-serif" font-size="13" lengthAdjust="spacing" textLength="157" x="189" y="383.231">&#19979;&#21333;&#65288;&#25658;&#24102;cart_item_id&#65289;</text><polygon fill="#181818" points="574,413.4297,584,417.4297,574,421.4297,578,417.4297" style="stroke:#181818;stroke-width:1.0;"/><line style="stroke:#181818;stroke-width:1.0;" x1="389" x2="580" y1="417.4297" y2="417.4297"/><text fill="#000000" font-family="sans-serif" font-size="13" font-weight="bold" lengthAdjust="spacing" textLength="9" x="396" y="412.3638">9</text><text fill="#000000" font-family="sans-serif" font-size="13" lengthAdjust="spacing" textLength="124" x="409" y="412.3638">setnx(cart_item_id)</text><path d="M131,432.4297 L195,432.4297 L195,439.5625 L185,449.5625 L131,449.5625 L131,432.4297 " fill="#EEEEEE" style="stroke:#000000;stroke-width:1.5;"/><rect fill="none" height="216.6016" style="stroke:#000000;stroke-width:1.5;" width="416" x="131" y="432.4297"/><text fill="#000000" font-family="sans-serif" font-size="13" font-weight="bold" lengthAdjust="spacing" textLength="19" x="146" y="445.4966">alt</text><text fill="#000000" font-family="sans-serif" font-size="11" font-weight="bold" lengthAdjust="spacing" textLength="67" x="210" y="444.6401">[setnx&#25104;&#21151;]</text><line style="stroke:#181818;stroke-width:1.0;" x1="389" x2="431" y1="470.6953" y2="470.6953"/><line style="stroke:#181818;stroke-width:1.0;" x1="431" x2="431" y1="470.6953" y2="483.6953"/><line style="stroke:#181818;stroke-width:1.0;" x1="390" x2="431" y1="483.6953" y2="483.6953"/><polygon fill="#181818" points="400,479.6953,390,483.6953,400,487.6953,396,483.6953" style="stroke:#181818;stroke-width:1.0;"/><text fill="#000000" font-family="sans-serif" font-size="13" font-weight="bold" lengthAdjust="spacing" textLength="18" x="396" y="465.6294">10</text><text fill="#000000" font-family="sans-serif" font-size="13" lengthAdjust="spacing" textLength="78" x="418" y="465.6294">&#25191;&#34892;&#19979;&#21333;&#36923;&#36753;</text><polygon fill="#181818" points="180,508.8281,170,512.8281,180,516.8281,176,512.8281" style="stroke:#181818;stroke-width:1.0;"/><line style="stroke:#181818;stroke-width:1.0;stroke-dasharray:2.0,2.0;" x1="174" x2="388" y1="512.8281" y2="512.8281"/><text fill="#000000" font-family="sans-serif" font-size="13" font-weight="bold" lengthAdjust="spacing" textLength="18" x="186" y="507.7622">11</text><text fill="#000000" font-family="sans-serif" font-size="13" lengthAdjust="spacing" textLength="52" x="208" y="507.7622">&#19979;&#21333;&#25104;&#21151;</text><line style="stroke:#181818;stroke-width:1.0;" x1="169" x2="211" y1="541.9609" y2="541.9609"/><line style="stroke:#181818;stroke-width:1.0;" x1="211" x2="211" y1="541.9609" y2="554.9609"/><line style="stroke:#181818;stroke-width:1.0;" x1="170" x2="211" y1="554.9609" y2="554.9609"/><polygon fill="#181818" points="180,550.9609,170,554.9609,180,558.9609,176,554.9609" style="stroke:#181818;stroke-width:1.0;"/><text fill="#000000" font-family="sans-serif" font-size="13" font-weight="bold" lengthAdjust="spacing" textLength="18" x="176" y="536.895">12</text><text fill="#000000" font-family="sans-serif" font-size="13" lengthAdjust="spacing" textLength="91" x="198" y="536.895">&#21024;&#38500;&#24050;&#19979;&#21333;&#21830;&#21697;</text><line style="stroke:#000000;stroke-width:1.0;stroke-dasharray:2.0,2.0;" x1="131" x2="547" y1="563.9609" y2="563.9609"/><text fill="#000000" font-family="sans-serif" font-size="11" font-weight="bold" lengthAdjust="spacing" textLength="67" x="136" y="574.1714">[setnx&#22833;&#36133;]</text><line style="stroke:#181818;stroke-width:1.0;" x1="389" x2="431" y1="598.8984" y2="598.8984"/><line style="stroke:#181818;stroke-width:1.0;" x1="431" x2="431" y1="598.8984" y2="611.8984"/><line style="stroke:#181818;stroke-width:1.0;" x1="390" x2="431" y1="611.8984" y2="611.8984"/><polygon fill="#181818" points="400,607.8984,390,611.8984,400,615.8984,396,611.8984" style="stroke:#181818;stroke-width:1.0;"/><text fill="#000000" font-family="sans-serif" font-size="13" font-weight="bold" lengthAdjust="spacing" textLength="18" x="396" y="593.8325">13</text><text fill="#000000" font-family="sans-serif" font-size="13" lengthAdjust="spacing" textLength="117" x="418" y="593.8325">&#37325;&#22797;&#19979;&#21333;&#65292;&#25298;&#32477;&#36141;&#20080;</text><polygon fill="#181818" points="180,637.0313,170,641.0313,180,645.0313,176,641.0313" style="stroke:#181818;stroke-width:1.0;"/><line style="stroke:#181818;stroke-width:1.0;stroke-dasharray:2.0,2.0;" x1="174" x2="388" y1="641.0313" y2="641.0313"/><text fill="#000000" font-family="sans-serif" font-size="13" font-weight="bold" lengthAdjust="spacing" textLength="18" x="186" y="635.9653">14</text><text fill="#000000" font-family="sans-serif" font-size="13" lengthAdjust="spacing" textLength="52" x="208" y="635.9653">&#19979;&#21333;&#22833;&#36133;</text></g></svg>