<?xml version="1.0" encoding="us-ascii" standalone="no"?><svg xmlns="http://www.w3.org/2000/svg" xmlns:xlink="http://www.w3.org/1999/xlink" contentStyleType="text/css" height="445px" preserveAspectRatio="none" style="width:577px;height:445px;background:#FFFFFF;" version="1.1" viewBox="0 0 577 445" width="577px" zoomAndPan="magnify"><defs/><g><rect fill="none" height="282" style="stroke:#000000;stroke-width:1.5;" width="560" x="10" y="111.5625"/><rect fill="none" height="119.5313" style="stroke:#000000;stroke-width:1.5;" width="279.5" x="142" y="164.8281"/><rect fill="none" height="46.2656" style="stroke:#000000;stroke-width:1.5;" width="259.5" x="152" y="231.0938"/><line style="stroke:#181818;stroke-width:0.5;stroke-dasharray:5.0,5.0;" x1="63" x2="63" y1="36.2969" y2="410.5625"/><line style="stroke:#181818;stroke-width:0.5;stroke-dasharray:5.0,5.0;" x1="204" x2="204" y1="36.2969" y2="410.5625"/><line style="stroke:#181818;stroke-width:0.5;stroke-dasharray:5.0,5.0;" x1="383.5" x2="383.5" y1="36.2969" y2="410.5625"/><line style="stroke:#181818;stroke-width:0.5;stroke-dasharray:5.0,5.0;" x1="525" x2="525" y1="36.2969" y2="410.5625"/><rect fill="#E2E2F0" height="30.2969" rx="2.5" ry="2.5" style="stroke:#181818;stroke-width:0.5;" width="86" x="20" y="5"/><text fill="#000000" font-family="sans-serif" font-size="14" lengthAdjust="spacing" textLength="72" x="27" y="24.9951">RocketMQ</text><rect fill="#E2E2F0" height="30.2969" rx="2.5" ry="2.5" style="stroke:#181818;stroke-width:0.5;" width="86" x="20" y="409.5625"/><text fill="#000000" font-family="sans-serif" font-size="14" lengthAdjust="spacing" textLength="72" x="27" y="429.5576">RocketMQ</text><rect fill="#E2E2F0" height="30.2969" rx="2.5" ry="2.5" style="stroke:#181818;stroke-width:0.5;" width="84" x="162" y="5"/><text fill="#000000" font-family="sans-serif" font-size="14" lengthAdjust="spacing" textLength="70" x="169" y="24.9951">&#28040;&#36153;&#32773;&#24212;&#29992;</text><rect fill="#E2E2F0" height="30.2969" rx="2.5" ry="2.5" style="stroke:#181818;stroke-width:0.5;" width="84" x="162" y="409.5625"/><text fill="#000000" font-family="sans-serif" font-size="14" lengthAdjust="spacing" textLength="70" x="169" y="429.5576">&#28040;&#36153;&#32773;&#24212;&#29992;</text><rect fill="#E2E2F0" height="30.2969" rx="2.5" ry="2.5" style="stroke:#181818;stroke-width:0.5;" width="35" x="366.5" y="5"/><text fill="#000000" font-family="sans-serif" font-size="14" lengthAdjust="spacing" textLength="21" x="373.5" y="24.9951">DB</text><rect fill="#E2E2F0" height="30.2969" rx="2.5" ry="2.5" style="stroke:#181818;stroke-width:0.5;" width="35" x="366.5" y="409.5625"/><text fill="#000000" font-family="sans-serif" font-size="14" lengthAdjust="spacing" textLength="21" x="373.5" y="429.5576">DB</text><rect fill="#E2E2F0" height="30.2969" rx="2.5" ry="2.5" style="stroke:#181818;stroke-width:0.5;" width="70" x="490" y="5"/><text fill="#000000" font-family="sans-serif" font-size="14" lengthAdjust="spacing" textLength="56" x="497" y="24.9951">&#23450;&#26102;&#20219;&#21153;</text><rect fill="#E2E2F0" height="30.2969" rx="2.5" ry="2.5" style="stroke:#181818;stroke-width:0.5;" width="70" x="490" y="409.5625"/><text fill="#000000" font-family="sans-serif" font-size="14" lengthAdjust="spacing" textLength="56" x="497" y="429.5576">&#23450;&#26102;&#20219;&#21153;</text><polygon fill="#181818" points="192,63.4297,202,67.4297,192,71.4297,196,67.4297" style="stroke:#181818;stroke-width:1.0;"/><line style="stroke:#181818;stroke-width:1.0;stroke-dasharray:2.0,2.0;" x1="63" x2="198" y1="67.4297" y2="67.4297"/><text fill="#000000" font-family="sans-serif" font-size="13" font-weight="bold" lengthAdjust="spacing" textLength="9" x="70" y="62.3638">1</text><text fill="#000000" font-family="sans-serif" font-size="13" lengthAdjust="spacing" textLength="52" x="83" y="62.3638">&#28040;&#24687;&#25237;&#36882;</text><polygon fill="#181818" points="372,92.5625,382,96.5625,372,100.5625,376,96.5625" style="stroke:#181818;stroke-width:1.0;"/><line style="stroke:#181818;stroke-width:1.0;" x1="204" x2="378" y1="96.5625" y2="96.5625"/><text fill="#000000" font-family="sans-serif" font-size="13" font-weight="bold" lengthAdjust="spacing" textLength="9" x="211" y="91.4966">2</text><text fill="#000000" font-family="sans-serif" font-size="13" lengthAdjust="spacing" textLength="143" x="224" y="91.4966">&#28040;&#24687;&#23384;&#22312;&#26412;&#22320;&#30340;&#28040;&#24687;&#34920;&#20013;</text><path d="M10,111.5625 L74,111.5625 L74,118.6953 L64,128.6953 L10,128.6953 L10,111.5625 " fill="#EEEEEE" style="stroke:#000000;stroke-width:1.5;"/><rect fill="none" height="282" style="stroke:#000000;stroke-width:1.5;" width="560" x="10" y="111.5625"/><text fill="#000000" font-family="sans-serif" font-size="13" font-weight="bold" lengthAdjust="spacing" textLength="19" x="25" y="124.6294">alt</text><text fill="#000000" font-family="sans-serif" font-size="11" font-weight="bold" lengthAdjust="spacing" textLength="76" x="89" y="123.7729">[&#28040;&#24687;&#20445;&#23384;&#25104;&#21151;]</text><polygon fill="#181818" points="74,145.8281,64,149.8281,74,153.8281,70,149.8281" style="stroke:#181818;stroke-width:1.0;"/><line style="stroke:#181818;stroke-width:1.0;" x1="68" x2="203" y1="149.8281" y2="149.8281"/><text fill="#000000" font-family="sans-serif" font-size="13" font-weight="bold" lengthAdjust="spacing" textLength="9" x="80" y="144.7622">3</text><text fill="#000000" font-family="sans-serif" font-size="13" lengthAdjust="spacing" textLength="52" x="93" y="144.7622">&#28040;&#36153;&#25104;&#21151;</text><path d="M142,164.8281 L243,164.8281 L243,171.9609 L233,181.9609 L142,181.9609 L142,164.8281 " fill="#EEEEEE" style="stroke:#000000;stroke-width:1.5;"/><rect fill="none" height="119.5313" style="stroke:#000000;stroke-width:1.5;" width="279.5" x="142" y="164.8281"/><text fill="#000000" font-family="sans-serif" font-size="13" font-weight="bold" lengthAdjust="spacing" textLength="56" x="157" y="177.895">&#24322;&#27493;&#25805;&#20316;</text><line style="stroke:#181818;stroke-width:1.0;stroke-dasharray:2.0,2.0;" x1="204" x2="246" y1="203.0938" y2="203.0938"/><line style="stroke:#181818;stroke-width:1.0;stroke-dasharray:2.0,2.0;" x1="246" x2="246" y1="203.0938" y2="216.0938"/><line style="stroke:#181818;stroke-width:1.0;stroke-dasharray:2.0,2.0;" x1="205" x2="246" y1="216.0938" y2="216.0938"/><polygon fill="#181818" points="215,212.0938,205,216.0938,215,220.0938,211,216.0938" style="stroke:#181818;stroke-width:1.0;"/><text fill="#000000" font-family="sans-serif" font-size="13" font-weight="bold" lengthAdjust="spacing" textLength="9" x="211" y="198.0278">4</text><text fill="#000000" font-family="sans-serif" font-size="13" lengthAdjust="spacing" textLength="78" x="224" y="198.0278">&#24322;&#27493;&#22788;&#29702;&#28040;&#24687;</text><path d="M152,231.0938 L216,231.0938 L216,238.2266 L206,248.2266 L152,248.2266 L152,231.0938 " fill="#EEEEEE" style="stroke:#000000;stroke-width:1.5;"/><rect fill="none" height="46.2656" style="stroke:#000000;stroke-width:1.5;" width="259.5" x="152" y="231.0938"/><text fill="#000000" font-family="sans-serif" font-size="13" font-weight="bold" lengthAdjust="spacing" textLength="19" x="167" y="244.1606">alt</text><text fill="#000000" font-family="sans-serif" font-size="11" font-weight="bold" lengthAdjust="spacing" textLength="76" x="231" y="243.3042">[&#24322;&#27493;&#22788;&#29702;&#25104;&#21151;]</text><polygon fill="#181818" points="372,265.3594,382,269.3594,372,273.3594,376,269.3594" style="stroke:#181818;stroke-width:1.0;"/><line style="stroke:#181818;stroke-width:1.0;" x1="204" x2="378" y1="269.3594" y2="269.3594"/><text fill="#000000" font-family="sans-serif" font-size="13" font-weight="bold" lengthAdjust="spacing" textLength="9" x="211" y="264.2935">5</text><text fill="#000000" font-family="sans-serif" font-size="13" lengthAdjust="spacing" textLength="52" x="224" y="264.2935">&#21024;&#38500;&#28040;&#24687;</text><polygon fill="#181818" points="395,308.4922,385,312.4922,395,316.4922,391,312.4922" style="stroke:#181818;stroke-width:1.0;"/><line style="stroke:#181818;stroke-width:1.0;" x1="389" x2="524" y1="312.4922" y2="312.4922"/><text fill="#000000" font-family="sans-serif" font-size="13" font-weight="bold" lengthAdjust="spacing" textLength="9" x="401" y="307.4263">6</text><text fill="#000000" font-family="sans-serif" font-size="13" lengthAdjust="spacing" textLength="104" x="414" y="307.4263">&#24453;&#22788;&#29702;&#30340;&#28040;&#24687;&#25195;&#25551;</text><polygon fill="#181818" points="215,337.625,205,341.625,215,345.625,211,341.625" style="stroke:#181818;stroke-width:1.0;"/><line style="stroke:#181818;stroke-width:1.0;" x1="209" x2="524" y1="341.625" y2="341.625"/><text fill="#000000" font-family="sans-serif" font-size="13" font-weight="bold" lengthAdjust="spacing" textLength="9" x="221" y="336.5591">7</text><text fill="#000000" font-family="sans-serif" font-size="13" lengthAdjust="spacing" textLength="78" x="234" y="336.5591">&#28040;&#24687;&#28040;&#36153;&#22788;&#29702;</text><line style="stroke:#000000;stroke-width:1.0;stroke-dasharray:2.0,2.0;" x1="10" x2="570" y1="350.625" y2="350.625"/><text fill="#000000" font-family="sans-serif" font-size="11" font-weight="bold" lengthAdjust="spacing" textLength="76" x="15" y="360.8354">[&#28040;&#24687;&#20445;&#23384;&#22833;&#36133;]</text><polygon fill="#181818" points="74,381.5625,64,385.5625,74,389.5625,70,385.5625" style="stroke:#181818;stroke-width:1.0;"/><line style="stroke:#181818;stroke-width:1.0;" x1="68" x2="203" y1="385.5625" y2="385.5625"/><text fill="#000000" font-family="sans-serif" font-size="13" font-weight="bold" lengthAdjust="spacing" textLength="9" x="80" y="380.4966">8</text><text fill="#000000" font-family="sans-serif" font-size="13" lengthAdjust="spacing" textLength="104" x="93" y="380.4966">&#28040;&#36153;&#22833;&#36133;&#65288;&#37325;&#25237;&#65289;</text></g></svg>